<svg xmlns="http://www.w3.org/2000/svg" viewBox="0 0 34 19" fill="none">
  <!-- AAP flag "A" — extracted from advanceautoparts.com SVG wordmark -->
  <path d="M22.6046 18.0059H19.418L30.4736 0.314453H33.6602L22.6046 18.0059Z" fill="#FFCC00"/>
  <path d="M27.2712 0.314453H20.898L18.8253 3.62836L17.2141 6.21027H23.5873L27.2712 0.314453Z" fill="white"/>
  <path d="M10.8407 6.21045L7.15283 12.1063H13.526L13.9875 11.3703L17.2139 6.21045H10.8407Z" fill="white"/>
  <path d="M8.13568 0.314453H2.29955L1.53174 6.21027H4.4518H8.95521H10.8409L13.5103 1.93361L14.5248 0.314453H8.13568Z" fill="white"/>
  <path d="M16.2155 18.0057L18.4433 14.4412L19.8994 12.106H13.5262L9.84229 18.0057H16.2155Z" fill="white"/>
  <path d="M0 18.0057H3.46906L5.15983 15.3005L7.15295 12.106H0.767808L0 18.0057Z" fill="white"/>
</svg>
