<svg xmlns="http://www.w3.org/2000/svg" viewBox="0 0 48 48">
  <!-- Gear -->
  <path d="M14,6 L18,6 L19,9 L21,10 L24,8 L27,10 L25,13 L26,16 L29,16 L30,20 L27,21 L26,24 L28,27 L25,29 L22,27 L20,28 L19,31 L15,31 L14,28 L12,27 L9,29 L7,26 L10,24 L10,21 L7,20 L7,16 L10,16 L11,13 L9,10 L12,8 L14,10 Z" fill="#2D8A4E"/>
  <circle cx="18" cy="18" r="5" fill="white"/>
  <circle cx="18" cy="18" r="2.5" fill="#2D8A4E"/>
  <!-- Shopping tag -->
  <path d="M30,18 L40,8 L44,8 L44,12 L34,22 Z" fill="#2D8A4E"/>
  <circle cx="41" cy="11" r="1.5" fill="white"/>
  <!-- Tag string -->
  <path d="M44,8 L46,4" fill="none" stroke="#2D8A4E" stroke-width="1.5" stroke-linecap="round"/>
  <!-- Piston rod beneath gear -->
  <rect x="15" y="31" width="6" height="12" rx="1" fill="#2D8A4E"/>
  <rect x="13" y="38" width="10" height="3" rx="1" fill="#2D8A4E" opacity="0.7"/>
</svg>
