<svg xmlns="http://www.w3.org/2000/svg" viewBox="0 0 48 48" fill="currentColor">
  <rect x="22" y="2" width="4" height="3"/>
  <rect x="20" y="5" width="8" height="3"/>
  <rect x="18" y="8" width="12" height="2"/>
  <rect x="20" y="10" width="8" height="3"/>
  <rect x="18" y="13" width="12" height="2"/>
  <rect x="20" y="15" width="8" height="3"/>
  <rect x="18" y="18" width="12" height="2"/>
  <rect x="20" y="20" width="8" height="3"/>
  <polygon points="14,26 18,23 30,23 34,26 30,29 18,29"/>
  <rect x="18" y="29" width="12" height="11"/>
  <rect x="23" y="40" width="2" height="6"/>
  <path d="M28 40h2v5a1 1 0 0 1-1 1h-9v-2h8z"/>
</svg>
